<svg width="24" height="24" viewBox="0 0 24 24" fill="none" xmlns="http://www.w3.org/2000/svg">
<g clip-path="url(#clip0_24_137)">
<path d="M24 11C24.0026 8.92167 23.8857 6.84492 23.65 4.78C23.5652 4.14377 23.3094 3.54243 22.91 3.04C22.4651 2.53492 21.841 2.22288 21.17 2.17C20.3 2.07 19.17 2 17.81 1.95C16.29 1.9 14.56 1.88 12.81 1.9C12.7311 1.91368 12.6595 1.9548 12.6079 2.01608C12.5564 2.07737 12.5281 2.1549 12.5281 2.235C12.5281 2.3151 12.5564 2.39263 12.6079 2.45391C12.6595 2.5152 12.7311 2.55631 12.81 2.57C14.55 2.57 16.28 2.69 17.81 2.8C19.11 2.89 20.24 3.01 21.09 3.14C21.5079 3.18123 21.8926 3.38614 22.16 3.71C22.4202 4.09048 22.5628 4.53909 22.57 5C22.73 6.12 22.79 7.75 22.84 9.55C22.84 10.55 22.89 11.69 22.92 12.78C22.98 15.78 23.03 18.69 23.08 20.33C23.1028 20.871 22.9747 21.4076 22.71 21.88C22.6027 22.1054 22.4382 22.2988 22.2329 22.4409C22.0276 22.583 21.7888 22.6689 21.54 22.69C21.4711 22.7027 21.4088 22.7392 21.3639 22.7931C21.3191 22.847 21.2945 22.9149 21.2945 22.985C21.2945 23.0551 21.3191 23.123 21.3639 23.1769C21.4088 23.2308 21.4711 23.2673 21.54 23.28C21.8255 23.269 22.1048 23.1941 22.3575 23.0609C22.6101 22.9276 22.8297 22.7394 23 22.51C23.5077 21.8811 23.7863 21.0982 23.79 20.29C23.85 18.33 24 14.54 24 11Z" fill="black"/>
<path d="M19.66 22.85C16.89 22.85 12.33 22.95 8.66 22.85C7.10371 22.8675 5.54772 22.7941 4 22.63C3.47792 22.5611 2.97098 22.4056 2.5 22.17C2.30407 22.0874 2.12839 21.9632 1.9851 21.8061C1.8418 21.649 1.7343 21.4627 1.67 21.26C1.49 20.26 1.33 18.46 1.18 16.41C1.07 14.85 1 13.14 0.9 11.5C0.780205 9.33208 0.840412 7.15797 1.08 5C1.11973 4.75956 1.21191 4.53081 1.35 4.33C1.50101 4.11741 1.68304 3.92864 1.89 3.77C1.92661 3.75146 1.95887 3.72536 1.98465 3.69343C2.01042 3.6615 2.02913 3.62446 2.03952 3.58476C2.04992 3.54506 2.05177 3.5036 2.04496 3.46314C2.03815 3.42267 2.02282 3.38411 2 3.35C1.95249 3.28919 1.88338 3.24902 1.80702 3.23784C1.73067 3.22667 1.65294 3.24535 1.59 3.29C1.30598 3.48437 1.05595 3.72426 0.85 4C0.646033 4.26828 0.505823 4.57948 0.44 4.91C0.0520673 7.64181 -0.0951651 10.4024 -5.02914e-08 13.16C0.0202094 15.9321 0.207214 18.7004 0.56 21.45C0.621973 21.7577 0.747341 22.049 0.928119 22.3056C1.1089 22.5621 1.34112 22.7782 1.61 22.94C2.28427 23.3664 3.04698 23.6331 3.84 23.72C5.43139 23.879 7.03134 23.9358 8.63 23.89C12.33 23.89 16.89 23.6 19.63 23.52C19.7176 23.515 19.8002 23.4773 19.8613 23.4143C19.9224 23.3514 19.9576 23.2677 19.96 23.18C19.9603 23.0974 19.9297 23.0177 19.8742 22.9567C19.8186 22.8956 19.7422 22.8575 19.66 22.85Z" fill="black"/>
<path d="M3 12.52C3.01574 12.6744 3.06397 12.8237 3.14153 12.9582C3.21908 13.0926 3.32421 13.2091 3.45 13.3C3.8 13.5 4.3 13.4 4.69 12.81C5.09744 12.0987 5.43246 11.3482 5.69 10.57C6.05976 11.3969 6.53359 12.1732 7.1 12.88C7.64 13.47 8.24 13.67 8.73 13.38C8.98165 13.195 9.15046 12.9184 9.2 12.61C9.31235 11.879 9.34587 11.1381 9.3 10.4C9.3 8.88 8.73 6 9.15 4.15C9.34 3.3 9.74 2.68 10.59 2.67C10.6689 2.65631 10.7405 2.6152 10.7921 2.55391C10.8436 2.49263 10.8719 2.4151 10.8719 2.335C10.8719 2.2549 10.8436 2.17737 10.7921 2.11608C10.7405 2.0548 10.6689 2.01368 10.59 2C9.38 2 8.73 2.78 8.43 4C7.96 5.89 8.43 8.87 8.43 10.43V11.72C8.43 12.08 8.43 12.72 8.26 12.59C8.09 12.46 8.26 12.59 8.31 12.59C8.36 12.59 8.22 12.53 8.15 12.48C7.90704 12.2473 7.6983 11.9813 7.53 11.69C7.17006 11.1485 6.84604 10.5839 6.56 10C6.48 9.84 6.37 9.48 6.25 9.26C6.1673 9.12906 6.05834 9.01669 5.93 8.93C5.80063 8.85873 5.64951 8.83769 5.50559 8.87091C5.36167 8.90412 5.23506 8.98925 5.15 9.11C4.97937 9.37516 4.83534 9.65653 4.72 9.95C4.65 10.12 4.46 10.95 4.25 11.55C4.17 11.17 4.05 10.8 4.04 10.67C3.8582 9.15389 3.79134 7.6262 3.84 6.1C3.86857 5.08941 3.99923 4.0843 4.23 3.1C4.3238 2.55877 4.53921 2.04589 4.86 1.6C5.19279 1.21616 5.66349 0.979016 6.17 0.939998C7.24 0.793813 8.32618 0.814052 9.39 0.999998C10.0769 1.09597 10.7313 1.35296 11.3 1.75C11.3295 1.77429 11.3636 1.79253 11.4002 1.80367C11.4368 1.81481 11.4752 1.81863 11.5133 1.81491C11.5514 1.8112 11.5883 1.80002 11.6221 1.78202C11.6558 1.76402 11.6857 1.73955 11.71 1.71C11.7343 1.68045 11.7525 1.64641 11.7637 1.60981C11.7748 1.57322 11.7786 1.53479 11.7749 1.49671C11.7712 1.45864 11.76 1.42167 11.742 1.38792C11.724 1.35417 11.6995 1.32429 11.67 1.3C11.0422 0.799593 10.3 0.462857 9.51 0.319998C8.38431 0.0959852 7.23098 0.0454008 6.09 0.169998C5.37869 0.208453 4.71085 0.524421 4.23 1.05C3.80247 1.56835 3.49816 2.17697 3.34 2.83C3.06076 3.86654 2.88655 4.92856 2.82 6C2.73156 7.58043 2.76834 9.16537 2.93 10.74C2.91939 11.3342 2.94276 11.9285 3 12.52Z" fill="black"/>
<path d="M21.49 6.71C21.49 6.62153 21.4556 6.53653 21.394 6.47305C21.3324 6.40957 21.2484 6.3726 21.16 6.37C20.7189 6.36777 20.2792 6.41812 19.85 6.52C18.92 6.72 17.95 7.1 17.1 7.3C16.7392 7.41518 16.3719 7.50868 16 7.58C15.827 7.63084 15.643 7.63084 15.47 7.58C15.2779 7.50484 15.1137 7.37211 15 7.2C14.8493 7.01986 14.7217 6.82167 14.62 6.61C14.55 6.5 14.48 6.14 14.37 5.94C14.3077 5.78437 14.195 5.6541 14.05 5.57C13.35 5.23 13.25 6.02 12.49 6.75C12.3636 6.88472 12.2147 6.99639 12.05 7.08C12.0077 7.09968 11.9616 7.10987 11.915 7.10987C11.8684 7.10987 11.8223 7.09968 11.78 7.08C11.04 6.76 11.4 6.24 10.98 6.21C10.75 6.21 10.66 6.3 10.61 6.47C10.6518 6.74879 10.7542 7.01503 10.91 7.25C11.0957 7.4845 11.336 7.66991 11.61 7.79C11.8476 7.88462 12.1124 7.88462 12.35 7.79C12.607 7.69656 12.8469 7.56142 13.06 7.39C13.2519 7.23661 13.4323 7.0695 13.6 6.89C13.5883 6.95951 13.5883 7.03049 13.6 7.1C13.7604 7.46214 13.9726 7.79901 14.23 8.1C14.4314 8.31884 14.6767 8.49264 14.95 8.61C15.3076 8.74305 15.6944 8.77759 16.07 8.71C16.4994 8.60823 16.9205 8.47453 17.33 8.31C18.16 8.04 19.09 7.57 20 7.31C20.3716 7.15686 20.7615 7.05266 21.16 7C21.241 7.0006 21.3194 6.97137 21.3803 6.91789C21.4411 6.86441 21.4802 6.79042 21.49 6.71Z" fill="black"/>
<path d="M10.06 12.9C9.9 13.08 9.98 13.22 10.12 13.33C10.5589 13.4394 11.008 13.503 11.46 13.52L13.56 13.62C14.06 13.62 14.56 13.62 15.07 13.54C15.58 13.46 16.2 13.39 16.77 13.3C20.17 12.77 19.55 13.04 20.18 13.24C20.2623 13.2585 20.3477 13.2585 20.43 13.24C20.4737 13.2414 20.5172 13.2338 20.5579 13.2177C20.5986 13.2016 20.6355 13.1774 20.6664 13.1464C20.6974 13.1155 20.7216 13.0786 20.7377 13.0379C20.7538 12.9972 20.7614 12.9537 20.76 12.91C20.76 12.8225 20.7252 12.7385 20.6633 12.6766C20.6015 12.6148 20.5175 12.58 20.43 12.58C19.93 12.29 19.59 11.9 16.43 12.22C15.85 12.27 15.27 12.35 14.69 12.42C14.31 12.42 13.94 12.52 13.55 12.55L11.55 12.73C10.2 12.8 10.18 12.72 10.06 12.9Z" fill="black"/>
<path d="M12.27 17.43L9.05 17.78L5.43 18.09C4.74677 17.9454 4.03801 17.9763 3.37 18.18C3.33796 18.2069 3.31235 18.2406 3.29504 18.2787C3.27774 18.3167 3.26918 18.3582 3.27 18.4C3.26552 18.4486 3.27432 18.4976 3.29545 18.5416C3.31658 18.5856 3.34926 18.6231 3.39 18.65C3.48568 18.7116 3.59626 18.7462 3.71 18.75C4.13 18.75 5.2 18.81 5.43 18.82H9.05C9.38308 18.8383 9.71692 18.8383 10.05 18.82C10.79 18.75 11.53 18.61 12.27 18.58C20.94 18.04 20.58 17.74 20.64 17.66C20.6711 17.6293 20.6959 17.5927 20.7127 17.5524C20.7296 17.512 20.7383 17.4687 20.7383 17.425C20.7383 17.3813 20.7296 17.338 20.7127 17.2976C20.6959 17.2573 20.6711 17.2207 20.64 17.19C20.43 17 21.23 17.24 12.27 17.43Z" fill="black"/>
</g>
<defs>
<clipPath id="clip0_24_137">
<rect width="24" height="24" fill="white"/>
</clipPath>
</defs>
</svg>
