<svg width="24" height="24" viewBox="0 0 24 24" fill="none" xmlns="http://www.w3.org/2000/svg">
<g clip-path="url(#clip0_24_158)">
<path d="M25 11C25.0026 8.92167 24.8857 6.84492 24.65 4.78C24.5652 4.14377 24.3094 3.54243 23.91 3.04C23.4651 2.53492 22.841 2.22288 22.17 2.17C21.3 2.07 20.17 2 18.81 1.95C17.29 1.9 15.56 1.88 13.81 1.9C13.7311 1.91368 13.6595 1.9548 13.6079 2.01608C13.5564 2.07737 13.5281 2.1549 13.5281 2.235C13.5281 2.3151 13.5564 2.39263 13.6079 2.45391C13.6595 2.5152 13.7311 2.55631 13.81 2.57C15.55 2.57 17.28 2.69 18.81 2.8C20.11 2.89 21.24 3.01 22.09 3.14C22.5079 3.18123 22.8926 3.38614 23.16 3.71C23.4202 4.09048 23.5628 4.53909 23.57 5C23.73 6.12 23.79 7.75 23.84 9.55C23.84 10.55 23.89 11.69 23.92 12.78C23.98 15.78 24.03 18.69 24.08 20.33C24.1028 20.871 23.9747 21.4076 23.71 21.88C23.6027 22.1054 23.4382 22.2988 23.2329 22.4409C23.0276 22.583 22.7888 22.6689 22.54 22.69C22.4711 22.7027 22.4088 22.7392 22.3639 22.7931C22.3191 22.847 22.2945 22.9149 22.2945 22.985C22.2945 23.0551 22.3191 23.123 22.3639 23.1769C22.4088 23.2308 22.4711 23.2673 22.54 23.28C22.8255 23.269 23.1048 23.1941 23.3575 23.0609C23.6101 22.9276 23.8297 22.7394 24 22.51C24.5077 21.8811 24.7863 21.0982 24.79 20.29C24.85 18.33 25 14.54 25 11Z" fill="white"/>
<path d="M20.66 22.85C17.89 22.85 13.33 22.95 9.66 22.85C8.10371 22.8675 6.54772 22.7941 5 22.63C4.47792 22.5611 3.97098 22.4056 3.5 22.17C3.30407 22.0874 3.12839 21.9632 2.9851 21.8061C2.8418 21.649 2.7343 21.4627 2.67 21.26C2.49 20.26 2.33 18.46 2.18 16.41C2.07 14.85 2 13.14 1.9 11.5C1.78021 9.33208 1.84041 7.15797 2.08 5C2.11973 4.75956 2.21191 4.53081 2.35 4.33C2.50101 4.11741 2.68304 3.92864 2.89 3.77C2.92661 3.75146 2.95887 3.72536 2.98465 3.69343C3.01042 3.6615 3.02913 3.62446 3.03952 3.58476C3.04992 3.54506 3.05177 3.5036 3.04496 3.46314C3.03815 3.42267 3.02282 3.38411 3 3.35C2.95249 3.28919 2.88338 3.24902 2.80702 3.23784C2.73067 3.22667 2.65294 3.24535 2.59 3.29C2.30598 3.48437 2.05595 3.72426 1.85 4C1.64603 4.26828 1.50582 4.57948 1.44 4.91C1.05207 7.64181 0.904835 10.4024 1 13.16C1.02021 15.9321 1.20721 18.7004 1.56 21.45C1.62197 21.7577 1.74734 22.049 1.92812 22.3056C2.1089 22.5621 2.34112 22.7782 2.61 22.94C3.28427 23.3664 4.04698 23.6331 4.84 23.72C6.43139 23.879 8.03134 23.9358 9.63 23.89C13.33 23.89 17.89 23.6 20.63 23.52C20.7176 23.515 20.8002 23.4773 20.8613 23.4143C20.9224 23.3514 20.9576 23.2677 20.96 23.18C20.9603 23.0974 20.9297 23.0177 20.8742 22.9567C20.8186 22.8956 20.7422 22.8575 20.66 22.85Z" fill="white"/>
<path d="M4 12.52C4.01574 12.6744 4.06397 12.8237 4.14153 12.9582C4.21908 13.0926 4.32421 13.2091 4.45 13.3C4.8 13.5 5.3 13.4 5.69 12.81C6.09744 12.0987 6.43246 11.3482 6.69 10.57C7.05976 11.3969 7.53359 12.1732 8.1 12.88C8.64 13.47 9.24 13.67 9.73 13.38C9.98165 13.195 10.1505 12.9184 10.2 12.61C10.3123 11.879 10.3459 11.1381 10.3 10.4C10.3 8.88 9.73 6 10.15 4.15C10.34 3.3 10.74 2.68 11.59 2.67C11.6689 2.65631 11.7405 2.6152 11.7921 2.55391C11.8436 2.49263 11.8719 2.4151 11.8719 2.335C11.8719 2.2549 11.8436 2.17737 11.7921 2.11608C11.7405 2.0548 11.6689 2.01368 11.59 2C10.38 2 9.73 2.78 9.43 4C8.96 5.89 9.43 8.87 9.43 10.43V11.72C9.43 12.08 9.43 12.72 9.26 12.59C9.09 12.46 9.26 12.59 9.31 12.59C9.36 12.59 9.22 12.53 9.15 12.48C8.90704 12.2473 8.6983 11.9813 8.53 11.69C8.17006 11.1485 7.84604 10.5839 7.56 10C7.48 9.84 7.37 9.48 7.25 9.26C7.1673 9.12906 7.05834 9.01669 6.93 8.93C6.80063 8.85873 6.64951 8.83769 6.50559 8.87091C6.36167 8.90412 6.23506 8.98925 6.15 9.11C5.97937 9.37516 5.83534 9.65653 5.72 9.95C5.65 10.12 5.46 10.95 5.25 11.55C5.17 11.17 5.05 10.8 5.04 10.67C4.8582 9.15389 4.79134 7.6262 4.84 6.1C4.86857 5.08941 4.99923 4.0843 5.23 3.1C5.3238 2.55877 5.53921 2.04589 5.86 1.6C6.19279 1.21616 6.66349 0.979016 7.17 0.939998C8.24 0.793813 9.32618 0.814052 10.39 0.999998C11.0769 1.09597 11.7313 1.35296 12.3 1.75C12.3295 1.77429 12.3636 1.79253 12.4002 1.80367C12.4368 1.81481 12.4752 1.81863 12.5133 1.81491C12.5514 1.8112 12.5883 1.80002 12.6221 1.78202C12.6558 1.76402 12.6857 1.73955 12.71 1.71C12.7343 1.68045 12.7525 1.64641 12.7637 1.60981C12.7748 1.57322 12.7786 1.53479 12.7749 1.49671C12.7712 1.45864 12.76 1.42167 12.742 1.38792C12.724 1.35417 12.6995 1.32429 12.67 1.3C12.0422 0.799593 11.3 0.462857 10.51 0.319998C9.38431 0.0959852 8.23098 0.0454008 7.09 0.169998C6.37869 0.208453 5.71085 0.524421 5.23 1.05C4.80247 1.56835 4.49816 2.17697 4.34 2.83C4.06076 3.86654 3.88655 4.92856 3.82 6C3.73156 7.58043 3.76834 9.16537 3.93 10.74C3.91939 11.3342 3.94276 11.9285 4 12.52Z" fill="white"/>
<path d="M22.49 6.71C22.49 6.62153 22.4556 6.53653 22.394 6.47305C22.3324 6.40957 22.2484 6.3726 22.16 6.37C21.7189 6.36777 21.2792 6.41812 20.85 6.52C19.92 6.72 18.95 7.1 18.1 7.3C17.7392 7.41518 17.3719 7.50868 17 7.58C16.827 7.63084 16.643 7.63084 16.47 7.58C16.2779 7.50484 16.1137 7.37211 16 7.2C15.8493 7.01986 15.7217 6.82167 15.62 6.61C15.55 6.5 15.48 6.14 15.37 5.94C15.3077 5.78437 15.195 5.6541 15.05 5.57C14.35 5.23 14.25 6.02 13.49 6.75C13.3636 6.88472 13.2147 6.99639 13.05 7.08C13.0077 7.09968 12.9616 7.10987 12.915 7.10987C12.8684 7.10987 12.8223 7.09968 12.78 7.08C12.04 6.76 12.4 6.24 11.98 6.21C11.75 6.21 11.66 6.3 11.61 6.47C11.6518 6.74879 11.7542 7.01503 11.91 7.25C12.0957 7.4845 12.336 7.66991 12.61 7.79C12.8476 7.88462 13.1124 7.88462 13.35 7.79C13.607 7.69656 13.8469 7.56142 14.06 7.39C14.2519 7.23661 14.4323 7.0695 14.6 6.89C14.5883 6.95951 14.5883 7.03049 14.6 7.1C14.7604 7.46214 14.9726 7.79901 15.23 8.1C15.4314 8.31884 15.6767 8.49264 15.95 8.61C16.3076 8.74305 16.6944 8.77759 17.07 8.71C17.4994 8.60823 17.9205 8.47453 18.33 8.31C19.16 8.04 20.09 7.57 21 7.31C21.3716 7.15686 21.7615 7.05266 22.16 7C22.241 7.0006 22.3194 6.97137 22.3803 6.91789C22.4411 6.86441 22.4802 6.79042 22.49 6.71Z" fill="white"/>
<path d="M11.06 12.9C10.9 13.08 10.98 13.22 11.12 13.33C11.5589 13.4394 12.008 13.503 12.46 13.52L14.56 13.62C15.06 13.62 15.56 13.62 16.07 13.54C16.58 13.46 17.2 13.39 17.77 13.3C21.17 12.77 20.55 13.04 21.18 13.24C21.2623 13.2585 21.3477 13.2585 21.43 13.24C21.4737 13.2414 21.5172 13.2338 21.5579 13.2177C21.5986 13.2016 21.6355 13.1774 21.6664 13.1464C21.6974 13.1155 21.7216 13.0786 21.7377 13.0379C21.7538 12.9972 21.7614 12.9537 21.76 12.91C21.76 12.8225 21.7252 12.7385 21.6633 12.6766C21.6015 12.6148 21.5175 12.58 21.43 12.58C20.93 12.29 20.59 11.9 17.43 12.22C16.85 12.27 16.27 12.35 15.69 12.42C15.31 12.42 14.94 12.52 14.55 12.55L12.55 12.73C11.2 12.8 11.18 12.72 11.06 12.9Z" fill="white"/>
<path d="M13.27 17.43L10.05 17.78L6.43 18.09C5.74677 17.9453 5.03801 17.9763 4.37 18.18C4.33796 18.2069 4.31235 18.2406 4.29504 18.2786C4.27774 18.3167 4.26918 18.3582 4.27 18.4C4.26552 18.4486 4.27432 18.4975 4.29545 18.5416C4.31658 18.5856 4.34926 18.6231 4.39 18.65C4.48568 18.7116 4.59626 18.7462 4.71 18.75C5.13 18.75 6.2 18.81 6.43 18.82H10.05C10.3831 18.8383 10.7169 18.8383 11.05 18.82C11.79 18.75 12.53 18.61 13.27 18.58C21.94 18.04 21.58 17.74 21.64 17.66C21.6711 17.6293 21.6959 17.5927 21.7127 17.5523C21.7296 17.512 21.7383 17.4687 21.7383 17.425C21.7383 17.3812 21.7296 17.338 21.7127 17.2976C21.6959 17.2573 21.6711 17.2207 21.64 17.19C21.43 17 22.23 17.24 13.27 17.43Z" fill="white"/>
</g>
<defs>
<clipPath id="clip0_24_158">
<rect width="24" height="24" fill="white"/>
</clipPath>
</defs>
</svg>
