<svg width="24" height="24" viewBox="0 0 24 24" fill="none" xmlns="http://www.w3.org/2000/svg">
<g clip-path="url(#clip0_1030_2030)">
<path fill-rule="evenodd" clip-rule="evenodd" d="M11.77 3C11.7687 3.04548 11.7765 3.09077 11.793 3.13319C11.8094 3.1756 11.8343 3.21427 11.866 3.24691C11.8977 3.27955 11.9356 3.30549 11.9775 3.3232C12.0195 3.34091 12.0645 3.35002 12.11 3.35C12.2028 3.35 12.2919 3.31313 12.3575 3.24749C12.4231 3.18185 12.46 3.09283 12.46 3C12.5452 2.67065 12.612 2.3368 12.66 2C12.6699 1.86351 12.6699 1.72649 12.66 1.59C12.6753 1.4571 12.6753 1.3229 12.66 1.19C12.59 0.9 12.47 0.62 12.39 0.3C12.3874 0.219528 12.3536 0.143224 12.2957 0.0872333C12.2379 0.0312425 12.1605 -4.1859e-05 12.08 4.20361e-08C12.0004 4.20361e-08 11.9241 0.0316071 11.8679 0.087868C11.8116 0.144129 11.78 0.220435 11.78 0.3C11.6784 0.627782 11.5983 0.961819 11.54 1.3C11.5298 1.43648 11.5298 1.57352 11.54 1.71C11.5474 1.84433 11.5641 1.97798 11.59 2.11C11.62 2.37 11.7 2.66 11.77 3Z" fill="black"/>
<path fill-rule="evenodd" clip-rule="evenodd" d="M12.39 21C12.3874 20.9195 12.3536 20.8432 12.2957 20.7872C12.2379 20.7312 12.1605 20.7 12.08 20.7C12.0402 20.6986 12.0006 20.7054 11.9636 20.72C11.9265 20.7346 11.8929 20.7566 11.8648 20.7848C11.8366 20.8129 11.8146 20.8465 11.8 20.8836C11.7854 20.9206 11.7786 20.9602 11.78 21C11.6784 21.3278 11.5983 21.6618 11.54 22C11.5298 22.1365 11.5298 22.2735 11.54 22.41C11.5474 22.5443 11.5641 22.678 11.59 22.81C11.59 23.11 11.72 23.4 11.79 23.74C11.7887 23.7855 11.7965 23.8308 11.813 23.8732C11.8294 23.9156 11.8543 23.9543 11.886 23.9869C11.9177 24.0196 11.9556 24.0455 11.9975 24.0632C12.0395 24.0809 12.0845 24.09 12.13 24.09C12.2211 24.09 12.3087 24.0545 12.374 23.9911C12.4394 23.9276 12.4774 23.8411 12.48 23.75C12.5652 23.4207 12.632 23.0868 12.68 22.75C12.6899 22.6135 12.6899 22.4765 12.68 22.34C12.6953 22.2071 12.6953 22.0729 12.68 21.94C12.59 21.55 12.47 21.27 12.39 21Z" fill="black"/>
<path fill-rule="evenodd" clip-rule="evenodd" d="M23.62 12.13C23.3107 12.0208 22.993 11.9372 22.67 11.88C22.5337 11.8651 22.3962 11.8651 22.26 11.88C22.1268 11.8706 21.9932 11.8706 21.86 11.88C21.56 11.88 21.26 12.01 20.92 12.07C20.875 12.0673 20.8299 12.0738 20.7875 12.0891C20.7452 12.1045 20.7064 12.1284 20.6736 12.1593C20.6408 12.1902 20.6147 12.2275 20.5969 12.2689C20.5791 12.3103 20.5699 12.3549 20.57 12.4C20.5672 12.4912 20.6002 12.5798 20.6618 12.6471C20.7235 12.7143 20.8089 12.7548 20.9 12.76C21.25 12.84 21.55 12.92 21.9 12.97C22.0365 12.9798 22.1735 12.9798 22.31 12.97C22.4429 12.9853 22.5771 12.9853 22.71 12.97C23.0275 12.9032 23.3413 12.8197 23.65 12.72C23.6902 12.7213 23.7303 12.7146 23.7679 12.7001C23.8054 12.6856 23.8397 12.6637 23.8686 12.6357C23.8975 12.6077 23.9205 12.5742 23.9362 12.5371C23.9519 12.5001 23.96 12.4602 23.96 12.42C23.959 12.3778 23.9491 12.3364 23.9309 12.2983C23.9128 12.2602 23.8868 12.2264 23.8548 12.199C23.8227 12.1717 23.7852 12.1514 23.7447 12.1395C23.7043 12.1276 23.6618 12.1244 23.62 12.13Z" fill="black"/>
<path fill-rule="evenodd" clip-rule="evenodd" d="M1.78 12.42C1.91649 12.4299 2.05352 12.4299 2.19 12.42C2.52 12.36 2.8 12.25 3.12 12.17C3.19143 12.157 3.25604 12.1193 3.30255 12.0636C3.34907 12.0079 3.37455 11.9376 3.37455 11.865C3.37455 11.7924 3.34907 11.7221 3.30255 11.6663C3.25604 11.6106 3.19143 11.573 3.12 11.56C2.80926 11.4556 2.49188 11.3721 2.17 11.31C2.03375 11.295 1.89626 11.295 1.76 11.31H1.36C1.06 11.36 0.760004 11.44 0.430004 11.5C0.337892 11.4998 0.24923 11.535 0.182263 11.5983C0.115297 11.6615 0.0751209 11.748 0.0700036 11.84C0.0672719 11.885 0.0737852 11.93 0.0891417 11.9724C0.104498 12.0148 0.128373 12.0536 0.159292 12.0864C0.190212 12.1192 0.227522 12.1453 0.268922 12.1631C0.310321 12.1809 0.354932 12.1901 0.400004 12.19C0.750004 12.28 1.05 12.36 1.4 12.41L1.78 12.42Z" fill="black"/>
<path fill-rule="evenodd" clip-rule="evenodd" d="M19 6.22998C19.31 6.04998 19.58 5.90998 19.85 5.72998C19.9609 5.65223 20.0677 5.56879 20.17 5.47998C20.2679 5.38736 20.3582 5.28704 20.44 5.17998C20.65 4.90998 20.78 4.63998 20.96 4.35998C21.0156 4.30222 21.0467 4.22516 21.0467 4.14498C21.0467 4.0648 21.0156 3.98774 20.96 3.92998C20.9328 3.89995 20.8996 3.87594 20.8626 3.85951C20.8256 3.84308 20.7855 3.83459 20.745 3.83459C20.7045 3.83459 20.6644 3.84308 20.6274 3.85951C20.5904 3.87594 20.5572 3.89995 20.53 3.92998C20.2309 4.06547 19.9404 4.21909 19.66 4.38998C19.5522 4.4712 19.4487 4.55798 19.35 4.64998C19.2548 4.74519 19.1647 4.84533 19.08 4.94998C18.89 5.18998 18.73 5.44998 18.52 5.72998C18.4565 5.79371 18.4208 5.88001 18.4208 5.96998C18.4208 6.05995 18.4565 6.14625 18.52 6.20998C18.5824 6.27393 18.6668 6.31162 18.756 6.31534C18.8453 6.31906 18.9326 6.28852 19 6.22998Z" fill="black"/>
<path fill-rule="evenodd" clip-rule="evenodd" d="M5.23001 17.76C4.93001 17.92 4.65001 18.04 4.36001 18.23C4.24985 18.3082 4.14618 18.3951 4.05001 18.49C3.9524 18.5829 3.86213 18.6832 3.78001 18.79C3.59001 19.03 3.43001 19.29 3.22001 19.56C3.15816 19.6266 3.12378 19.7141 3.12378 19.805C3.12378 19.8959 3.15816 19.9834 3.22001 20.05C3.28543 20.1141 3.3734 20.1501 3.46501 20.1501C3.55662 20.1501 3.64458 20.1141 3.71001 20.05C3.99834 19.9014 4.27873 19.7378 4.55001 19.56C4.66842 19.4846 4.77898 19.3975 4.88001 19.3C4.96777 19.2065 5.04802 19.1062 5.12001 19C5.33001 18.72 5.46001 18.45 5.64001 18.17C5.66956 18.1431 5.69351 18.1106 5.71051 18.0744C5.7275 18.0383 5.73721 17.9991 5.73906 17.9592C5.74092 17.9192 5.7349 17.8793 5.72133 17.8417C5.70777 17.8041 5.68693 17.7696 5.66001 17.74C5.63309 17.7105 5.60061 17.6865 5.56443 17.6695C5.52825 17.6525 5.48908 17.6428 5.44915 17.641C5.40922 17.6391 5.36932 17.6451 5.33172 17.6587C5.29412 17.6723 5.25956 17.6931 5.23001 17.72V17.76Z" fill="black"/>
<path fill-rule="evenodd" clip-rule="evenodd" d="M19.6 19.66C19.5219 19.5466 19.435 19.4396 19.34 19.34L19.05 19.07C18.81 18.87 18.55 18.71 18.28 18.5C18.2173 18.4415 18.1352 18.408 18.0494 18.406C17.9637 18.404 17.8802 18.4336 17.8148 18.4891C17.7494 18.5447 17.7066 18.6223 17.6947 18.7072C17.6828 18.7922 17.7024 18.8786 17.75 18.95C17.8986 19.2415 18.0622 19.5252 18.24 19.8C18.3086 19.9204 18.3926 20.0313 18.49 20.13C18.5766 20.2332 18.6738 20.3271 18.78 20.41C19.05 20.62 19.32 20.75 19.59 20.94C19.6389 20.9988 19.7078 21.0375 19.7835 21.0485C19.8592 21.0596 19.9363 21.0423 20 21C20.0287 20.972 20.0516 20.9386 20.0671 20.9017C20.0827 20.8647 20.0908 20.8251 20.0908 20.785C20.0908 20.7449 20.0827 20.7052 20.0671 20.6683C20.0516 20.6314 20.0287 20.5979 20 20.57C19.8857 20.2586 19.7521 19.9547 19.6 19.66Z" fill="black"/>
<path fill-rule="evenodd" clip-rule="evenodd" d="M4.59999 4.29998C4.67774 4.4109 4.76119 4.51771 4.84999 4.61998C4.93646 4.72334 5.03367 4.8172 5.13999 4.89998C5.41543 5.09426 5.70264 5.27127 5.99999 5.42998C6.02795 5.45871 6.06138 5.48154 6.09831 5.49713C6.13523 5.51272 6.17491 5.52076 6.21499 5.52076C6.25508 5.52076 6.29476 5.51272 6.33168 5.49713C6.36861 5.48154 6.40204 5.45871 6.42999 5.42998C6.4856 5.37222 6.51667 5.29516 6.51667 5.21498C6.51667 5.1348 6.4856 5.05774 6.42999 4.99998C6.30344 4.70847 6.15986 4.42465 5.99999 4.14998C5.92532 4.03996 5.8417 3.93627 5.74999 3.83998C5.65737 3.74211 5.55705 3.65182 5.44999 3.56998C5.20999 3.36998 4.94999 3.20998 4.67999 2.99998C4.6511 2.96584 4.61577 2.93772 4.57601 2.91723C4.53625 2.89674 4.49285 2.88429 4.44828 2.88057C4.40371 2.87686 4.35884 2.88196 4.31624 2.89558C4.27364 2.90921 4.23414 2.93109 4.19999 2.95998C4.16585 2.98887 4.13773 3.02421 4.11724 3.06396C4.09675 3.10372 4.0843 3.14713 4.08058 3.1917C4.07687 3.23627 4.08197 3.28114 4.0956 3.32374C4.10922 3.36634 4.1311 3.40584 4.15999 3.43998C4.28859 3.73554 4.43554 4.02277 4.59999 4.29998Z" fill="black"/>
<path fill-rule="evenodd" clip-rule="evenodd" d="M7.64003 2.22C7.67434 2.34958 7.71778 2.47656 7.77003 2.6C7.83003 2.72 7.89003 2.84 7.96003 2.96C8.03003 3.08 8.31003 3.46 8.49003 3.75C8.52357 3.83589 8.58965 3.90508 8.67391 3.94253C8.75817 3.97998 8.8538 3.98266 8.94003 3.95C9.02355 3.91645 9.09093 3.85201 9.12817 3.77007C9.16542 3.68813 9.16966 3.59499 9.14003 3.51C9.08003 3.16 9.05003 2.85 8.97003 2.51C8.94064 2.37697 8.90051 2.24655 8.85003 2.12C8.80229 1.99426 8.74198 1.87364 8.67003 1.76C8.48003 1.47 8.27003 1.25 8.08003 0.990003C8.0656 0.951907 8.04381 0.917027 8.01589 0.887359C7.98798 0.857691 7.95449 0.833816 7.91734 0.817099C7.88019 0.800382 7.84011 0.791151 7.79939 0.789933C7.75867 0.788716 7.71811 0.795536 7.68003 0.810003C7.60654 0.843031 7.54822 0.902565 7.51671 0.976714C7.48519 1.05086 7.48281 1.13417 7.51003 1.21C7.53314 1.54897 7.57655 1.88624 7.64003 2.22Z" fill="black"/>
<path fill-rule="evenodd" clip-rule="evenodd" d="M16.56 21.75C16.5306 21.6137 16.4905 21.48 16.44 21.35C16.38 21.23 16.32 21.1 16.25 20.99C16.07 20.7 15.86 20.49 15.66 20.22C15.6468 20.1823 15.626 20.1477 15.5988 20.1184C15.5717 20.0892 15.5387 20.0658 15.5021 20.0499C15.4655 20.0339 15.426 20.0257 15.386 20.0257C15.3461 20.0257 15.3066 20.034 15.27 20.05C15.2332 20.0644 15.1995 20.0859 15.171 20.1133C15.1425 20.1407 15.1197 20.1734 15.1039 20.2097C15.0881 20.2459 15.0796 20.2849 15.079 20.3244C15.0783 20.364 15.0854 20.4033 15.1 20.44C15.1228 20.7757 15.1662 21.1097 15.23 21.44C15.2644 21.5728 15.3078 21.7031 15.36 21.83C15.4155 21.9508 15.479 22.0677 15.55 22.18C15.71 22.45 15.89 22.69 16.08 22.97C16.0958 23.012 16.1196 23.0505 16.1503 23.0833C16.1809 23.1161 16.2177 23.1426 16.2586 23.1611C16.2994 23.1797 16.3436 23.1901 16.3884 23.1916C16.4333 23.1931 16.478 23.1858 16.52 23.17C16.562 23.1543 16.6005 23.1304 16.6333 23.0997C16.6661 23.0691 16.6926 23.0323 16.7111 22.9914C16.7297 22.9506 16.74 22.9065 16.7416 22.8616C16.7431 22.8168 16.7358 22.772 16.72 22.73C16.67 22.36 16.63 22.05 16.56 21.75Z" fill="black"/>
<path fill-rule="evenodd" clip-rule="evenodd" d="M20.17 8.92998C20.2016 9.01533 20.2653 9.08499 20.3474 9.1242C20.4296 9.1634 20.5237 9.16906 20.61 9.13998C20.96 9.08998 21.27 9.05998 21.61 8.98998C21.7422 8.95741 21.8724 8.91735 22 8.86998C22.1289 8.82212 22.2528 8.76184 22.37 8.68998C22.66 8.50998 22.88 8.29998 23.15 8.10998C23.1877 8.09662 23.2224 8.07583 23.252 8.04886C23.2815 8.02189 23.3054 7.98927 23.3222 7.95292C23.339 7.91658 23.3483 7.87725 23.3496 7.83724C23.351 7.79724 23.3443 7.75737 23.33 7.71998C23.3156 7.68189 23.2938 7.64701 23.2659 7.61734C23.2379 7.58767 23.2044 7.5638 23.1673 7.54708C23.1301 7.53036 23.0901 7.52113 23.0494 7.51991C23.0086 7.5187 22.9681 7.52552 22.93 7.53998C22.6 7.53998 22.29 7.53998 21.93 7.65998C21.7991 7.68977 21.6717 7.73335 21.55 7.78998L21.18 7.99998C20.91 8.14998 20.67 8.33998 20.38 8.51998C20.3013 8.55134 20.2366 8.61017 20.198 8.68557C20.1594 8.76096 20.1495 8.8478 20.17 8.92998Z" fill="black"/>
<path fill-rule="evenodd" clip-rule="evenodd" d="M4.00001 15C3.98558 14.9619 3.96379 14.927 3.93587 14.8974C3.90795 14.8677 3.87447 14.8438 3.83732 14.8271C3.80017 14.8104 3.76009 14.8012 3.71937 14.7999C3.67865 14.7987 3.63809 14.8055 3.60001 14.82C3.26478 14.8367 2.93085 14.8734 2.60001 14.93C2.47043 14.9643 2.34345 15.0078 2.22001 15.06L1.86001 15.24C1.59001 15.4 1.35001 15.58 1.06001 15.76C0.974665 15.7917 0.905002 15.8553 0.865797 15.9374C0.826592 16.0196 0.820929 16.1138 0.85001 16.2C0.864568 16.2431 0.887613 16.2828 0.917781 16.3168C0.947949 16.3508 0.984628 16.3784 1.02565 16.398C1.06667 16.4175 1.1112 16.4287 1.15661 16.4308C1.20202 16.4328 1.24738 16.4258 1.29001 16.41C1.64001 16.36 1.95001 16.33 2.29001 16.26C2.42342 16.2321 2.55397 16.1919 2.68001 16.14C2.79035 16.1022 2.89738 16.0554 3.00001 16C3.29001 15.83 3.51001 15.62 3.78001 15.43C3.82639 15.4224 3.87034 15.404 3.90832 15.3764C3.9463 15.3487 3.97723 15.3124 3.99864 15.2706C4.02005 15.2288 4.03133 15.1825 4.03156 15.1355C4.0318 15.0885 4.02099 15.0421 4.00001 15Z" fill="black"/>
<path fill-rule="evenodd" clip-rule="evenodd" d="M15.93 4.24998C15.97 4.27062 16.0137 4.28312 16.0586 4.28674C16.1034 4.29037 16.1486 4.28505 16.1914 4.2711C16.2341 4.25714 16.2737 4.23483 16.3078 4.20546C16.3419 4.17608 16.3699 4.14023 16.39 4.09998C16.62 3.81998 16.82 3.58998 17 3.32998C17.0764 3.22417 17.1465 3.11398 17.21 2.99998C17.2713 2.8792 17.3183 2.75167 17.35 2.61998C17.44 2.28998 17.46 1.98998 17.53 1.66998C17.5595 1.63518 17.581 1.5943 17.5929 1.55025C17.6048 1.50619 17.6068 1.46005 17.5988 1.41512C17.5908 1.3702 17.573 1.32759 17.5467 1.29034C17.5203 1.25309 17.486 1.22212 17.4463 1.19964C17.4066 1.17717 17.3624 1.16373 17.3169 1.1603C17.2714 1.15687 17.2257 1.16353 17.1831 1.1798C17.1405 1.19607 17.1019 1.22155 17.0703 1.25443C17.0386 1.2873 17.0146 1.32676 17 1.36998C16.774 1.60612 16.5636 1.85664 16.37 2.11998C16.2916 2.23307 16.2246 2.35366 16.17 2.47998C16.17 2.59998 16.07 2.72998 16.03 2.85998C15.94 3.14998 15.89 3.44998 15.8 3.77998C15.7563 3.85984 15.7454 3.9536 15.7697 4.04135C15.794 4.1291 15.8515 4.20394 15.93 4.24998Z" fill="black"/>
<path fill-rule="evenodd" clip-rule="evenodd" d="M8.24 19.74C8.16838 19.7056 8.08604 19.701 8.01105 19.7273C7.93606 19.7535 7.87454 19.8085 7.84 19.88C7.61071 20.1195 7.39694 20.3733 7.2 20.64C7.12327 20.7541 7.05636 20.8746 7 21C7 21.12 6.9 21.25 6.86 21.38C6.77 21.67 6.72 21.97 6.63 22.3C6.60443 22.341 6.58763 22.3869 6.58067 22.4348C6.57371 22.4826 6.57674 22.5314 6.58957 22.578C6.60239 22.6246 6.62473 22.668 6.65519 22.7056C6.68564 22.7431 6.72354 22.774 6.7665 22.7962C6.80946 22.8183 6.85655 22.8314 6.9048 22.8344C6.95305 22.8375 7.00141 22.8305 7.04684 22.814C7.09226 22.7974 7.13377 22.7717 7.16873 22.7383C7.2037 22.7049 7.23137 22.6646 7.25 22.62C7.47 22.35 7.67 22.11 7.85 21.85C7.92729 21.7379 7.99742 21.621 8.06 21.5C8.11815 21.3779 8.16501 21.2507 8.2 21.12C8.28087 20.7908 8.34099 20.4568 8.38 20.12C8.4061 20.0504 8.40632 19.9737 8.38062 19.904C8.35493 19.8342 8.30502 19.776 8.24 19.74Z" fill="black"/>
<path fill-rule="evenodd" clip-rule="evenodd" d="M22.64 17C22.4036 16.7712 22.1531 16.5575 21.89 16.36C21.7828 16.278 21.6651 16.2107 21.54 16.16C21.4211 16.0997 21.2973 16.0496 21.17 16.01C20.87 15.92 20.57 15.86 20.24 15.77C20.1605 15.7275 20.0673 15.7185 19.981 15.7447C19.8948 15.771 19.8225 15.8304 19.78 15.91C19.7371 15.991 19.7278 16.0857 19.7539 16.1736C19.7801 16.2615 19.8398 16.3356 19.92 16.38C20.19 16.6 20.42 16.81 20.68 16.99C20.7922 17.0673 20.9091 17.1374 21.03 17.2C21.153 17.2617 21.2799 17.3152 21.41 17.36C21.74 17.45 22.04 17.47 22.36 17.55C22.4331 17.5848 22.5169 17.5897 22.5935 17.5635C22.6702 17.5373 22.7335 17.4822 22.77 17.41C22.789 17.3746 22.8006 17.3359 22.8044 17.2959C22.8081 17.256 22.8037 17.2157 22.7916 17.1775C22.7795 17.1393 22.7598 17.1039 22.7338 17.0734C22.7078 17.0429 22.6759 17.0179 22.64 17Z" fill="black"/>
<path fill-rule="evenodd" clip-rule="evenodd" d="M1.54001 7C1.81001 7.22 2.04001 7.43 2.30001 7.61C2.41215 7.68728 2.52905 7.75742 2.65001 7.82C2.76064 7.89108 2.87784 7.95136 3.00001 8C3.33001 8.09 3.63001 8.12 4.00001 8.19C4.07695 8.21563 4.16088 8.2101 4.23379 8.17458C4.30669 8.13906 4.36278 8.07639 4.39001 8C4.40896 7.96466 4.42064 7.92588 4.42435 7.88595C4.42805 7.84603 4.42372 7.80576 4.4116 7.76754C4.39948 7.72932 4.37982 7.69391 4.35379 7.66342C4.32775 7.63292 4.29586 7.60796 4.26001 7.59C4.02216 7.37836 3.7717 7.18133 3.51001 7C3.40281 6.91799 3.2851 6.85072 3.16001 6.8C3.0384 6.73805 2.91115 6.68782 2.78001 6.65C2.49001 6.56 2.19001 6.5 1.86001 6.41C1.78045 6.36756 1.68729 6.35847 1.60102 6.38473C1.51475 6.41098 1.44245 6.47043 1.40001 6.55C1.36313 6.62897 1.35703 6.71886 1.38293 6.80209C1.40882 6.88532 1.46484 6.95589 1.54001 7Z" fill="black"/>
<path d="M19.3 9.91002C19.1681 9.40179 18.9907 8.90645 18.77 8.43002C18.5519 7.94125 18.2694 7.48386 17.93 7.07002C17.8983 7.03706 17.8603 7.01083 17.8182 6.99291C17.7761 6.975 17.7308 6.96577 17.685 6.96577C17.6393 6.96577 17.594 6.975 17.5519 6.99291C17.5098 7.01083 17.4718 7.03706 17.44 7.07002C17.3789 7.13496 17.3448 7.22081 17.3448 7.31002C17.3448 7.39924 17.3789 7.48509 17.44 7.55002C17.7289 7.924 17.9676 8.33415 18.15 8.77002C18.3394 9.20936 18.49 9.66443 18.6 10.13C18.9163 11.3853 18.8565 12.7059 18.428 13.9274C17.9995 15.1489 17.2212 16.2174 16.19 17C15.786 17.3094 15.3542 17.5805 14.9 17.81C13.8315 18.3601 12.6315 18.6036 11.433 18.5135C10.2346 18.4235 9.08445 18.0035 8.11003 17.3C7.58408 16.9319 7.14401 16.4543 6.82003 15.9C5.83793 14.3493 5.48056 12.4839 5.82003 10.68C6.01477 9.76937 6.38926 8.90672 6.92156 8.14261C7.45387 7.37849 8.13329 6.72827 8.92003 6.23002C10.0913 5.5236 11.4583 5.21164 12.82 5.34002C14.2028 5.48783 15.5247 5.987 16.66 6.79002C16.7273 6.83481 16.809 6.85248 16.8888 6.8395C16.9685 6.82651 17.0404 6.78383 17.09 6.72002C17.1122 6.68669 17.1275 6.64926 17.1349 6.60994C17.1424 6.57061 17.1419 6.53019 17.1336 6.49105C17.1252 6.45191 17.109 6.41485 17.0861 6.38204C17.0632 6.34923 17.0339 6.32135 17 6.30002C15.7934 5.39434 14.3751 4.81255 12.88 4.61002C11.3514 4.40417 9.7972 4.69887 8.45003 5.45002C7.52482 5.98821 6.71879 6.70903 6.08099 7.5686C5.44318 8.42818 4.98694 9.40853 4.74003 10.45C4.37216 11.8351 4.42011 13.2978 4.8779 14.6558C5.33569 16.0139 6.18307 17.2071 7.31441 18.0868C8.44574 18.9665 9.81098 19.4937 11.2399 19.6027C12.6689 19.7118 14.0983 19.3978 15.35 18.7C16.9388 17.9354 18.2064 16.6342 18.9292 15.0259C19.6519 13.4176 19.7832 11.6057 19.3 9.91002Z" fill="black"/>
<path d="M8.37003 15.86C8.50003 15.52 8.55003 15.44 8.68003 15.13C8.86605 14.6677 9.12612 14.2388 9.45003 13.86C9.76635 13.5183 10.1341 13.2282 10.54 13C11.4573 13.4046 12.488 13.4719 13.45 13.19C13.7652 13.0932 14.0649 12.9517 14.34 12.77C14.6601 13.0837 14.915 13.4575 15.09 13.87L15.29 14.34L15.59 15.05C15.77 15.47 15.8 15.63 15.94 15.92C15.978 16.0089 16.0404 16.0852 16.12 16.14C16.33 16.26 16.67 16.21 16.82 15.78C16.8769 15.5298 16.8559 15.2681 16.76 15.03C16.709 14.7652 16.6285 14.5069 16.52 14.26C16.4216 14.003 16.2941 13.7581 16.14 13.53C15.8031 13.0384 15.354 12.634 14.83 12.35C15.3408 11.8105 15.6206 11.0929 15.61 10.35C15.6433 9.81754 15.5858 9.28327 15.44 8.77003C15.312 8.42082 15.1147 8.10109 14.86 7.83003C14.8292 7.79735 14.792 7.77131 14.7507 7.75351C14.7094 7.73571 14.665 7.72653 14.62 7.72653C14.5751 7.72653 14.5306 7.73571 14.4893 7.75351C14.4481 7.77131 14.4109 7.79735 14.38 7.83003C14.3451 7.85817 14.3161 7.89294 14.2946 7.93234C14.2732 7.97175 14.2597 8.01501 14.2551 8.05962C14.2505 8.10424 14.2547 8.14934 14.2675 8.19232C14.2804 8.2353 14.3016 8.2753 14.33 8.31003C14.5541 8.5759 14.7026 8.8971 14.76 9.24003C14.8102 9.61169 14.8102 9.98838 14.76 10.36C14.7378 10.8037 14.5685 11.2274 14.2787 11.5642C13.989 11.901 13.5954 12.1317 13.16 12.22C12.7151 12.3336 12.251 12.3505 11.799 12.2694C11.347 12.1883 10.9177 12.0112 10.54 11.75C10.3055 11.5713 10.1339 11.3227 10.05 11.04C9.93517 10.72 9.89748 10.3774 9.94003 10.04C9.98323 9.54889 10.1445 9.07545 10.41 8.66003C10.6865 8.26152 11.0875 7.96607 11.55 7.82003C11.9231 7.70394 12.3097 7.63672 12.7 7.62003C13.0851 7.60132 13.4698 7.66261 13.83 7.80003C13.8661 7.81673 13.9051 7.8261 13.9448 7.82758C13.9846 7.82907 14.0242 7.82265 14.0614 7.80869C14.0986 7.79474 14.1327 7.77352 14.1616 7.74629C14.1906 7.71905 14.2138 7.68633 14.23 7.65003C14.2479 7.61358 14.258 7.57378 14.2595 7.53319C14.2611 7.49261 14.2541 7.45215 14.239 7.41444C14.2239 7.37673 14.2011 7.34261 14.172 7.31429C14.1429 7.28597 14.1081 7.26408 14.07 7.25003C13.645 7.04552 13.1815 6.93306 12.71 6.92003C12.2519 6.8827 11.7907 6.90963 11.34 7.00003C10.6769 7.13224 10.0778 7.48463 9.64003 8.00003C9.23463 8.5271 8.96351 9.14485 8.85003 9.80003C8.78148 10.3016 8.83288 10.8122 9.00003 11.29C9.13897 11.7463 9.40212 12.1548 9.76003 12.47C9.2246 12.6999 8.74403 13.0407 8.35003 13.47C8.04764 13.8146 7.81653 14.2156 7.67003 14.65C7.54989 14.99 7.49559 15.3497 7.51003 15.71V15.93C7.51003 16.01 8.00003 16.88 8.37003 15.86Z" fill="black"/>
</g>
<defs>
<clipPath id="clip0_1030_2030">
<rect width="24" height="24" fill="white"/>
</clipPath>
</defs>
</svg>
