<svg width="24" height="24" viewBox="0 0 24 24" fill="none" xmlns="http://www.w3.org/2000/svg">
<g clip-path="url(#clip0_1030_2873)">
<path fill-rule="evenodd" clip-rule="evenodd" d="M22.61 6.51C21.2532 3.75763 18.8847 1.63642 16 0.59C14.2232 0.0338065 12.3444 -0.117464 10.5015 0.147291C8.65862 0.412045 6.89839 1.08611 5.35002 2.12C3.81209 3.16452 2.5393 4.55373 1.63306 6.17699C0.726807 7.80025 0.212132 9.61271 0.130025 11.47C0.0387577 12.8653 0.236203 14.2644 0.710025 15.58C1.1827 16.8846 1.9217 18.0765 2.88002 19.08C2.93779 19.1356 3.01485 19.1667 3.09502 19.1667C3.1752 19.1667 3.25226 19.1356 3.31002 19.08C3.33875 19.052 3.36158 19.0186 3.37718 18.9817C3.39277 18.9448 3.4008 18.9051 3.4008 18.865C3.4008 18.8249 3.39277 18.7852 3.37718 18.7483C3.36158 18.7114 3.33875 18.678 3.31002 18.65C2.43174 17.696 1.76997 16.5635 1.37002 15.33C0.983724 14.1063 0.857691 12.8153 1.00002 11.54C1.12135 9.83488 1.63591 8.18102 2.50339 6.70805C3.37086 5.23508 4.56767 3.98302 6.00002 3.05C7.41383 2.11626 9.01694 1.50734 10.6941 1.26701C12.3713 1.02667 14.0809 1.16088 15.7 1.66C18.3282 2.59597 20.4949 4.50837 21.75 7C23.0409 9.45896 23.3758 12.3088 22.69 15C22.5351 15.5771 22.3379 16.1419 22.1 16.69C21.8551 17.2339 21.564 17.7558 21.23 18.25C21.2037 18.2872 21.1851 18.3293 21.1754 18.3738C21.1657 18.4183 21.165 18.4643 21.1734 18.5091C21.1818 18.5538 21.1991 18.5965 21.2243 18.6344C21.2495 18.6724 21.282 18.7049 21.32 18.73C21.3564 18.7561 21.3977 18.7745 21.4414 18.7841C21.4852 18.7937 21.5304 18.7943 21.5743 18.7859C21.6183 18.7775 21.6601 18.7602 21.6972 18.7351C21.7343 18.71 21.7659 18.6777 21.79 18.64C22.1745 18.1227 22.5094 17.5702 22.79 16.99C23.0611 16.4146 23.2884 15.8196 23.47 15.21C24.2737 12.3038 23.9672 9.20257 22.61 6.51Z" fill="black"/>
<path fill-rule="evenodd" clip-rule="evenodd" d="M15 3.93C13.7265 3.52215 12.3773 3.40656 11.0529 3.5918C9.7285 3.77705 8.46286 4.25837 7.35004 5C6.24937 5.74896 5.34074 6.74684 4.69788 7.91267C4.05502 9.07851 3.69603 10.3795 3.65004 11.71C3.53187 13.3993 4.00957 15.0765 5.00004 16.45C5.04787 16.5131 5.11803 16.5555 5.19613 16.5685C5.27422 16.5815 5.35434 16.5642 5.42004 16.52C5.48592 16.4719 5.53021 16.3999 5.54332 16.3194C5.55642 16.2389 5.53728 16.1565 5.49004 16.09C4.63628 14.8355 4.25372 13.3194 4.41004 11.81C4.52197 10.6309 4.90404 9.4934 5.52663 8.48581C6.14922 7.47822 6.99558 6.62762 8.00004 6C8.97185 5.34905 10.0759 4.92173 11.2328 4.74881C12.3896 4.57589 13.5704 4.66168 14.69 5C16.5118 5.62113 18.0236 6.92151 18.91 8.63C19.8315 10.3486 20.0775 12.3494 19.6 14.24C19.52 14.52 19.44 14.8 19.33 15.08C19.2211 15.3563 19.0976 15.6267 18.96 15.89C18.9171 15.9711 18.9078 16.0657 18.934 16.1536C18.9601 16.2415 19.0198 16.3156 19.1 16.36C19.1796 16.4024 19.2728 16.4115 19.359 16.3853C19.4453 16.359 19.5176 16.2996 19.56 16.22C19.72 15.93 19.86 15.64 19.99 15.35C20.1129 15.0526 20.2197 14.7488 20.31 14.44C20.9173 12.3614 20.721 10.1305 19.76 8.19C18.7867 6.20578 17.0797 4.67803 15 3.93Z" fill="black"/>
<path fill-rule="evenodd" clip-rule="evenodd" d="M14 7.34C13.0339 7.00609 11.9914 6.96091 11 7.21C10.3568 7.36099 9.74665 7.62876 9.20004 8C8.52412 8.47538 7.97173 9.10557 7.58901 9.83796C7.2063 10.5703 7.00435 11.3837 7.00004 12.21C6.99732 12.2494 7.00242 12.289 7.01504 12.3264C7.02765 12.3639 7.04754 12.3984 7.07356 12.4282C7.09957 12.4579 7.13121 12.4822 7.16664 12.4997C7.20207 12.5172 7.24061 12.5275 7.28004 12.53C7.31893 12.5341 7.35826 12.5303 7.39566 12.5189C7.43305 12.5074 7.46774 12.4885 7.49763 12.4633C7.52753 12.438 7.55201 12.407 7.56961 12.3721C7.58721 12.3372 7.59756 12.299 7.60004 12.26C7.68043 11.5725 7.91797 10.9128 8.29427 10.3319C8.67057 9.75095 9.17552 9.26444 9.77004 8.91C10.2324 8.63799 10.7355 8.44216 11.26 8.33C12.0306 8.13323 12.8406 8.154 13.6 8.39C14.3861 8.64176 15.0813 9.11799 15.6 9.76C16.1429 10.4251 16.4892 11.2286 16.6 12.08C16.6038 12.1247 16.6164 12.1682 16.6371 12.2081C16.6577 12.2479 16.6861 12.2832 16.7205 12.3121C16.7549 12.3409 16.7946 12.3626 16.8375 12.376C16.8803 12.3893 16.9254 12.3941 16.97 12.39C17.0153 12.3876 17.0595 12.3759 17.1 12.3557C17.1405 12.3355 17.1764 12.3071 17.2055 12.2724C17.2346 12.2377 17.2562 12.1974 17.269 12.154C17.2818 12.1105 17.2856 12.0649 17.28 12.02C17.2163 11.0113 16.8698 10.0409 16.28 9.22C15.7145 8.38909 14.9235 7.73688 14 7.34Z" fill="black"/>
<path fill-rule="evenodd" clip-rule="evenodd" d="M16.06 22.54C15.93 22.15 15.8 21.75 15.69 21.35C15.58 20.95 15.48 20.55 15.4 20.16C14.9955 18.31 14.4779 16.4866 13.85 14.7C13.6069 14.0107 13.2704 13.3579 12.85 12.76C12.9226 12.7506 12.9934 12.7304 13.06 12.7C13.1678 12.6628 13.2691 12.6088 13.36 12.54C13.6645 12.3442 13.8827 12.0396 13.9701 11.6883C14.0574 11.337 14.0073 10.9656 13.83 10.65C13.6592 10.3288 13.3875 10.0726 13.0569 9.92085C12.7263 9.76908 12.3549 9.73014 12 9.81C11.8629 9.83898 11.7312 9.88961 11.61 9.96C11.4524 10.046 11.3077 10.1538 11.18 10.28L10.8 10.75C10.6929 10.9251 10.6265 11.1221 10.6057 11.3263C10.5849 11.5306 10.6103 11.7369 10.68 11.93C10.8465 12.2849 11.1237 12.5762 11.47 12.76C11.2558 13.0826 11.0588 13.4164 10.88 13.76C10.79 13.98 10.37 14.69 9.88 15.65C9.03318 17.1868 8.27202 18.7692 7.6 20.39C7.10216 21.3997 6.85517 22.5145 6.88 23.64C6.89867 23.7118 6.94332 23.7742 7.0053 23.815C7.06729 23.8559 7.14221 23.8723 7.21559 23.8611C7.28897 23.8499 7.35559 23.8119 7.40258 23.7544C7.44957 23.697 7.47359 23.6241 7.47 23.55C7.45064 23.3839 7.45064 23.2161 7.47 23.05C7.47 23.05 7.41 23.05 8.27 22.5L9.81 21.44C10.31 21.08 10.81 20.72 11.28 20.31C11.49 20.14 11.69 19.95 11.89 19.76C12.1737 20.0606 12.4777 20.3412 12.8 20.6C13.3594 21.0044 13.9403 21.3783 14.54 21.72L15.1 22.19L15.2 22.31L15.38 22.81C15.45 22.97 15.59 23.48 15.65 23.67L15.71 23.81C15.73 23.8599 15.7623 23.9039 15.8038 23.938C15.8454 23.9721 15.8948 23.9952 15.9476 24.0052C16.0004 24.0151 16.0549 24.0116 16.106 23.995C16.1571 23.9784 16.2032 23.9491 16.24 23.91C16.2782 23.8785 16.3089 23.8387 16.3297 23.7937C16.3504 23.7487 16.3608 23.6996 16.36 23.65C16.36 23.65 16.09 22.62 16.06 22.54ZM12.29 10.92C12.4152 10.874 12.5519 10.8695 12.6798 10.9074C12.8077 10.9452 12.92 11.0233 13 11.13C13.48 11.83 12.33 12.25 12.31 12.25C12.29 12.25 11.89 12.25 11.64 11.73C11.51 11.43 12 11.09 12.29 10.92ZM12 14.18C12 14.18 12.09 13.91 12.18 13.69L12.28 13.86C12.6084 14.5079 12.8956 15.1759 13.14 15.86C13.32 16.33 13.49 16.86 13.66 17.32L12.85 17.82L12.03 18.36C11.7883 18.1354 11.531 17.9283 11.26 17.74C11.0488 17.593 10.8245 17.4658 10.59 17.36L10.29 17.16C10.49 16.83 10.68 16.5 10.86 16.21C11.41 15.19 11.85 14.42 12 14.18ZM9.16 20.6L7.81 21.91C7.96 21.52 8.13 21.1 8.34 20.66C8.79 19.66 9.34 18.66 9.91 17.74L10.23 18.01C10.4419 18.1462 10.6366 18.3073 10.81 18.49C10.9414 18.6262 11.0649 18.7698 11.18 18.92L10.93 19.1C10.31 19.6 9.75 20.12 9.16 20.6ZM12.74 19L13.32 18.49L13.87 18.04C14.19 19.04 14.44 19.87 14.56 20.35L14.68 20.72L12.74 19Z" fill="black"/>
</g>
<defs>
<clipPath id="clip0_1030_2873">
<rect width="24" height="24" fill="white"/>
</clipPath>
</defs>
</svg>
