<svg width="24" height="24" viewBox="0 0 24 24" fill="none" xmlns="http://www.w3.org/2000/svg">
<g clip-path="url(#clip0_11_50)">
<path d="M1.39 9.84999C1.90424 10.1943 2.44226 10.5018 3 10.77C3.83 11.18 4.69 11.53 5.53 11.86L9.75 13.49C10.2896 13.7117 10.8403 13.9053 11.4 14.07C11.6868 14.1455 11.9843 14.1726 12.28 14.15C12.8192 14.1061 13.3504 13.9918 13.86 13.81C14.58 13.57 15.28 13.24 15.96 12.96L18.84 11.65C19.5 11.34 20.17 11.05 20.84 10.73C21.2933 10.5167 21.7333 10.2967 22.16 10.07C22.5063 9.91125 22.8405 9.72743 23.16 9.51999C23.3278 9.39859 23.4704 9.24576 23.58 9.06999C23.6144 8.99998 23.6323 8.923 23.6323 8.84499C23.6323 8.76697 23.6144 8.69 23.58 8.61999C23.4594 8.40082 23.3188 8.19327 23.16 7.99999C22.9494 7.75403 22.7149 7.5296 22.46 7.32999C22.0928 7.05907 21.7087 6.8119 21.31 6.58999C19.68 5.63999 18 4.70999 16.36 3.68999C15.2805 3.02879 14.2389 2.30766 13.24 1.52999C13.1737 1.47694 13.089 1.45241 13.0046 1.46179C12.9203 1.47117 12.843 1.51368 12.79 1.57999C12.737 1.64629 12.7124 1.73095 12.7218 1.81534C12.7312 1.89973 12.7737 1.97694 12.84 2.02999C13.8528 2.83532 14.9076 3.58637 16 4.27999C17.61 5.33999 19.29 6.27999 20.9 7.27999C21.2657 7.4888 21.6166 7.72269 21.95 7.97999C22.1504 8.14539 22.3346 8.32956 22.5 8.52999L22.64 8.73999L22.5 8.83999C22.24 8.99999 21.94 9.12999 21.75 9.22999C21.32 9.44999 20.89 9.64999 20.46 9.84999C19.8 10.15 19.13 10.43 18.46 10.72L15.59 12C14.92 12.27 14.24 12.59 13.59 12.82C13.1596 12.9667 12.713 13.0607 12.26 13.1C12.0019 13.1128 11.7438 13.0754 11.5 12.99C11.04 12.86 10.59 12.64 10.17 12.49L5.97 10.9C5.14 10.59 4.3 10.27 3.49 9.89999C2.94195 9.65558 2.41077 9.37496 1.9 9.05999C1.65929 8.91028 1.43476 8.73602 1.23 8.53999C1.14788 8.4654 1.07103 8.38521 1 8.29999L6.4 4.71999C7.4 4.11999 8.4 3.51999 9.4 2.93999C10.08 2.55999 10.76 2.18999 11.45 1.82999C11.5118 1.79434 11.5577 1.7364 11.5783 1.66804C11.5989 1.59967 11.5925 1.52604 11.5606 1.46218C11.5287 1.39833 11.4736 1.34908 11.4065 1.32451C11.3395 1.29994 11.2656 1.3019 11.2 1.32999C10.5 1.67999 9.8 2.03999 9.11 2.40999C8.09 2.99999 7.07 3.53999 6.05 4.11999L4.2 5.18999C3.29 5.73999 2.38 6.29999 1.48 6.86999C1.05658 7.07662 0.648827 7.31392 0.26 7.57999C0.184195 7.63382 0.121468 7.70401 0.0764617 7.78537C0.0314558 7.86673 0.00532377 7.95716 0 8.04999C0.029701 8.40474 0.177596 8.73927 0.42 8.99999C0.70143 9.32785 1.02803 9.61404 1.39 9.84999Z" fill="black"/>
<path d="M1.69 14C2.20542 14.3664 2.74312 14.7004 3.3 15C4.13 15.42 4.98 15.78 5.81 16.12L10 17.75C10.5365 17.9826 11.0877 18.1797 11.65 18.34C11.9378 18.41 12.2343 18.4369 12.53 18.42C13.0691 18.3751 13.6001 18.2608 14.11 18.08C14.83 17.84 15.52 17.5 16.21 17.21L19.07 15.87C19.73 15.56 20.39 15.26 21.07 14.94C21.51 14.73 21.95 14.51 22.38 14.27C22.7092 14.1113 23.0237 13.9239 23.32 13.71C23.4783 13.5961 23.6139 13.4536 23.72 13.29C23.7469 13.232 23.7608 13.1689 23.7608 13.105C23.7608 13.0411 23.7469 12.978 23.72 12.92C23.607 12.7072 23.473 12.5062 23.32 12.32C23.1494 12.1244 22.9656 11.9406 22.77 11.77C22.32 11.39 21.88 11.09 21.88 11.09C21.8107 11.0432 21.7259 11.0254 21.6437 11.0404C21.5615 11.0553 21.4884 11.1019 21.44 11.17C21.4155 11.2039 21.3982 11.2423 21.3889 11.283C21.3797 11.3238 21.3788 11.366 21.3862 11.407C21.3937 11.4481 21.4094 11.4873 21.4324 11.5222C21.4554 11.5571 21.4852 11.5869 21.52 11.61C21.52 11.61 21.84 11.84 22.19 12.15C22.4569 12.4434 22.7041 12.754 22.93 13.08L22.75 13.2C22.49 13.36 22.18 13.49 21.99 13.59C21.5633 13.8033 21.1333 14.0033 20.7 14.19C20.03 14.49 19.36 14.76 18.7 15.05L15.82 16.27C15.15 16.54 14.47 16.85 13.77 17.07C13.3452 17.226 12.9011 17.3235 12.45 17.36C12.1922 17.3678 11.935 17.3305 11.69 17.25C11.23 17.11 10.78 16.9 10.36 16.76L6.14 15.21C5.31 14.92 4.47 14.61 3.64 14.21C3.10498 13.97 2.58412 13.6995 2.08 13.4C1.77725 13.2189 1.49841 13.0005 1.25 12.75C1.14612 12.6457 1.06148 12.5238 1 12.39C1.35149 12.151 1.71533 11.9307 2.09 11.73C2.15059 11.6875 2.19262 11.6234 2.2075 11.5509C2.22237 11.4784 2.20896 11.4029 2.17 11.34C2.15073 11.3093 2.12548 11.2828 2.09575 11.2621C2.06603 11.2414 2.03243 11.2268 1.99697 11.2194C1.96151 11.2119 1.92491 11.2117 1.88936 11.2186C1.8538 11.2256 1.82001 11.2397 1.79 11.26C1.37021 11.4787 0.965921 11.7259 0.580001 12C0.51905 12.0407 0.46897 12.0957 0.434114 12.1602C0.399258 12.2247 0.380682 12.2967 0.380001 12.37C0.401656 12.6983 0.535867 13.0091 0.760001 13.25C1.03891 13.5363 1.35114 13.7881 1.69 14Z" fill="black"/>
<path d="M24 17.18C23.8845 16.9686 23.7507 16.7679 23.6 16.58C23.3926 16.3405 23.1614 16.1227 22.91 15.93C22.5418 15.6636 22.1578 15.4198 21.76 15.2C21.7247 15.1784 21.6854 15.1642 21.6445 15.1581C21.6036 15.152 21.5619 15.1541 21.5218 15.1643C21.4817 15.1746 21.4441 15.1928 21.4112 15.2178C21.3782 15.2428 21.3506 15.2741 21.33 15.31C21.3082 15.3461 21.2938 15.3861 21.2876 15.4278C21.2813 15.4694 21.2834 15.5119 21.2936 15.5528C21.3038 15.5937 21.322 15.6322 21.3471 15.666C21.3723 15.6998 21.4038 15.7284 21.44 15.75C21.8059 15.9623 22.1567 16.1995 22.49 16.46C22.7511 16.7327 22.9887 17.0271 23.2 17.34L23.03 17.46C22.77 17.62 22.46 17.75 22.27 17.85L20.97 18.46L18.97 19.31L16.1 20.54C15.43 20.8 14.75 21.11 14.05 21.34C13.6223 21.486 13.1795 21.5833 12.73 21.63C12.4725 21.6327 12.2162 21.5956 11.97 21.52C11.51 21.38 11.05 21.17 10.64 21.02L6.38 19.48C5.55 19.18 4.71 18.87 3.88 18.48C3.34497 18.24 2.82412 17.9695 2.32 17.67C2.0153 17.488 1.73901 17.2623 1.5 17C1.39351 16.8921 1.31163 16.7625 1.26 16.62C1.61 16.3 2.6 15.62 2.67 15.62C2.731 15.5802 2.7737 15.5178 2.7887 15.4465C2.8037 15.3753 2.78978 15.301 2.75 15.24C2.7303 15.2098 2.70485 15.1837 2.67509 15.1634C2.64533 15.143 2.61185 15.1287 2.57657 15.1213C2.5053 15.1063 2.431 15.1202 2.37 15.16C1.84275 15.4661 1.33204 15.7999 0.839998 16.16C0.711584 16.2531 0.625292 16.3934 0.599998 16.55C0.630545 16.881 0.767358 17.1932 0.989998 17.44C1.26261 17.7568 1.57915 18.0329 1.93 18.26C2.44443 18.6099 2.98237 18.924 3.54 19.2C4.36 19.61 5.21 19.97 6.05 20.32L10.25 22C10.7865 22.2325 11.3377 22.4296 11.9 22.59C12.1876 22.6611 12.4843 22.6881 12.78 22.67C13.3184 22.6202 13.8488 22.5061 14.36 22.33C15.07 22.09 15.77 21.75 16.46 21.46L19.32 20.12C19.98 19.81 20.64 19.51 21.32 19.19C21.76 18.98 22.2 18.76 22.63 18.52C22.9592 18.3593 23.2767 18.1755 23.58 17.97C23.7358 17.8523 23.868 17.7065 23.97 17.54C24.0008 17.4857 24.0195 17.4254 24.0246 17.3633C24.0298 17.3011 24.0214 17.2386 24 17.18Z" fill="black"/>
</g>
<defs>
<clipPath id="clip0_11_50">
<rect width="24" height="24" fill="white"/>
</clipPath>
</defs>
</svg>
