<svg width="24" height="24" viewBox="0 0 24 24" fill="none" xmlns="http://www.w3.org/2000/svg">
<g clip-path="url(#clip0_33_298)">
<path d="M11.49 11.34C11.1 11.01 11.1 10.77 10.01 10.78C9.6046 10.84 9.2263 11.0195 8.92347 11.2956C8.62064 11.5717 8.40704 11.9318 8.31 12.33C8.21958 12.6293 8.22181 12.949 8.3164 13.2471C8.41099 13.5451 8.59351 13.8076 8.84 14C9.18484 14.1951 9.57862 14.2866 9.97415 14.2635C10.3697 14.2404 10.7502 14.1038 11.07 13.87C11.4104 13.6764 11.6755 13.3736 11.8225 13.0107C11.9694 12.6478 11.9897 12.2459 11.88 11.87C11.7953 11.6641 11.6614 11.4821 11.49 11.34ZM10.49 13.05C10.3377 13.1636 10.1561 13.2315 9.96664 13.2457C9.77713 13.2598 9.58752 13.2197 9.42 13.13C9.17 12.97 9.21 12.63 9.31 12.33C9.41 12.03 9.68 11.55 10.02 11.49C10.1785 11.4708 10.3393 11.4899 10.4889 11.5455C10.6385 11.6012 10.7726 11.6919 10.88 11.81C10.9795 11.8964 11.0495 12.0118 11.08 12.14C11.22 12.53 10.89 12.85 10.53 13.05H10.49Z" fill="white"/>
<path d="M5.57 16.58C5.18 16.25 5.18 16.01 4.08 16.02C3.67641 16.0818 3.30029 16.2621 2.99939 16.5381C2.69849 16.8141 2.48638 17.1732 2.39 17.57C2.29063 17.8748 2.28824 18.203 2.38316 18.5092C2.47809 18.8155 2.66565 19.0848 2.92 19.28C3.26485 19.4751 3.65863 19.5665 4.05415 19.5435C4.44968 19.5204 4.83016 19.3838 5.15 19.15C5.49036 18.9564 5.75547 18.6536 5.90246 18.2907C6.04945 17.9278 6.06972 17.5259 5.96 17.15C5.88122 16.9296 5.74688 16.7333 5.57 16.58ZM4.57 18.29C4.41768 18.4036 4.23614 18.4715 4.04664 18.4856C3.85714 18.4998 3.66752 18.4597 3.5 18.37C3.25 18.21 3.29 17.87 3.39 17.57C3.49 17.27 3.75 16.79 4.1 16.73C4.25688 16.7124 4.41569 16.7323 4.56343 16.7879C4.71116 16.8435 4.84363 16.9333 4.95 17.05C5.05222 17.1358 5.12554 17.251 5.16 17.38C5.3 17.77 5 18.09 4.61 18.29H4.57Z" fill="white"/>
<path d="M16.77 11.21C16.36 10.86 16.36 10.64 15.28 10.64C14.8751 10.7025 14.4981 10.8843 14.197 11.1622C13.896 11.4401 13.6846 11.8014 13.59 12.2C13.4914 12.5033 13.4894 12.8298 13.5844 13.1344C13.6793 13.4389 13.8665 13.7064 14.12 13.9C14.4625 14.1026 14.8576 14.1985 15.2548 14.1753C15.6521 14.1522 16.0334 14.011 16.35 13.77C16.6904 13.5764 16.9555 13.2736 17.1025 12.9107C17.2494 12.5478 17.2697 12.1459 17.16 11.77C17.0813 11.5524 16.9468 11.3592 16.77 11.21ZM15.77 12.92C15.6177 13.0336 15.4361 13.1015 15.2466 13.1156C15.0571 13.1298 14.8675 13.0897 14.7 13C14.45 12.84 14.49 12.49 14.59 12.19C14.69 11.89 14.95 11.41 15.3 11.36C15.5291 11.3224 15.7642 11.3656 15.9649 11.4824C16.1657 11.5992 16.3195 11.7822 16.4 12C16.5 12.4 16.17 12.71 15.81 12.92H15.77Z" fill="white"/>
<path d="M10.85 16.45C10.46 16.12 10.46 15.88 9.36 15.88C8.95201 15.9345 8.57078 16.1136 8.26833 16.3927C7.96587 16.6719 7.75693 17.0376 7.67 17.44C7.56989 17.7432 7.56716 18.0702 7.66221 18.375C7.75725 18.6799 7.9453 18.9474 8.2 19.14C8.54344 19.3412 8.93911 19.4354 9.33637 19.4104C9.73364 19.3855 10.1144 19.2426 10.43 19C10.7704 18.8064 11.0355 18.5036 11.1825 18.1407C11.3294 17.7778 11.3497 17.3759 11.24 17C11.1598 16.786 11.0254 16.5965 10.85 16.45ZM9.85 18.16C9.69768 18.2736 9.51614 18.3415 9.32664 18.3556C9.13714 18.3698 8.94752 18.3297 8.78 18.24C8.52 18.08 8.57 17.73 8.67 17.43C8.77 17.13 9.03 16.65 9.38 16.6C9.53607 16.5812 9.69438 16.5995 9.84206 16.6533C9.98975 16.7072 10.1227 16.7951 10.23 16.91C10.3322 16.9958 10.4055 17.111 10.44 17.24C10.57 17.64 10.25 18 9.89 18.16H9.85Z" fill="white"/>
<path d="M21.3 11.31C20.91 10.97 20.9 10.74 19.81 10.74C19.402 10.7945 19.0208 10.9736 18.7183 11.2528C18.4159 11.532 18.2069 11.8977 18.12 12.3C18.0199 12.6032 18.0172 12.9302 18.1122 13.235C18.2073 13.5399 18.3953 13.8074 18.65 14C18.9925 14.2026 19.3876 14.2985 19.7848 14.2753C20.1821 14.2522 20.5634 14.111 20.88 13.87C21.2204 13.6764 21.4855 13.3736 21.6325 13.0107C21.7794 12.6478 21.7997 12.2459 21.69 11.87C21.6113 11.6524 21.4768 11.4592 21.3 11.31ZM20.3 13.02C20.1477 13.1336 19.9661 13.2015 19.7766 13.2157C19.5871 13.2298 19.3975 13.1897 19.23 13.1C18.97 12.94 19.02 12.59 19.12 12.29C19.22 11.99 19.48 11.51 19.83 11.46C20.0529 11.4321 20.2787 11.4801 20.471 11.5962C20.6633 11.7123 20.8109 11.8898 20.89 12.1C21 12.5 20.7 12.81 20.34 13L20.3 13.02Z" fill="white"/>
<path d="M14.55 16C14.1464 16.0618 13.7703 16.2421 13.4694 16.5181C13.1685 16.7941 12.9564 17.1532 12.86 17.55C12.7606 17.8548 12.7582 18.183 12.8532 18.4892C12.9481 18.7955 13.1356 19.0648 13.39 19.26C13.7356 19.4527 14.1289 19.5428 14.5239 19.5197C14.9189 19.4967 15.2992 19.3615 15.62 19.13C15.9604 18.9364 16.2255 18.6336 16.3725 18.2707C16.5194 17.9078 16.5397 17.5059 16.43 17.13C16.2743 16.7686 16.0092 16.4651 15.6719 16.2624C15.3346 16.0597 14.9422 15.9679 14.55 16ZM15.08 18.27C14.9277 18.3836 14.7461 18.4515 14.5566 18.4656C14.3671 18.4798 14.1775 18.4397 14.01 18.35C13.76 18.19 13.8 17.85 13.9 17.54C14 17.23 14.27 16.77 14.61 16.71C14.7661 16.6912 14.9244 16.7095 15.0721 16.7634C15.2198 16.8172 15.3527 16.9051 15.46 17.02C15.5604 17.1074 15.6333 17.222 15.67 17.35C15.77 17.72 15.44 18 15.08 18.24V18.27Z" fill="white"/>
<path d="M15.76 3.86999C15.6471 4.62819 15.7297 5.40267 16 6.11999C16.1807 6.47169 16.4839 6.74514 16.8523 6.88881C17.2207 7.03249 17.6289 7.03646 18 6.89999C18.2525 6.83883 18.4855 6.7152 18.6777 6.54047C18.8699 6.36573 19.0151 6.14549 19.1 5.89999C19.2635 5.33884 19.3245 4.75279 19.28 4.16999V3.82999V2.70999C19.2949 2.48857 19.2615 2.26656 19.1821 2.05935C19.1027 1.85213 18.9791 1.66468 18.82 1.50999C18.2869 1.14834 17.6367 1.00186 17 1.09999C16.9571 1.09865 16.9145 1.10593 16.8745 1.12141C16.8345 1.1369 16.798 1.16025 16.7672 1.1901C16.7365 1.21995 16.712 1.25568 16.6953 1.29517C16.6786 1.33466 16.67 1.37711 16.67 1.41999C16.6455 1.35832 16.5998 1.30738 16.5412 1.27625C16.4826 1.24511 16.4148 1.2358 16.35 1.24999C16.2846 1.26829 16.2248 1.30254 16.1759 1.34967C16.1271 1.39679 16.0907 1.45532 16.07 1.51999C16.0104 1.86999 15.9869 2.22519 16 2.57999L15.86 3.18999C15.8079 3.41349 15.7744 3.64094 15.76 3.86999ZM16.59 3.45999C16.59 3.45999 16.75 1.59999 16.75 1.52999C16.7752 1.58883 16.817 1.63907 16.8703 1.67458C16.9235 1.71009 16.986 1.72934 17.05 1.72999C17.95 1.72999 18.33 1.89999 18.43 2.24999C18.4625 2.88624 18.4188 3.52409 18.3 4.14999C18.3027 4.53714 18.2591 4.92322 18.17 5.29999C18.1 5.53999 18.01 5.77999 17.76 5.83999C17.6624 5.88418 17.5562 5.90605 17.4491 5.904C17.342 5.90194 17.2367 5.87602 17.1409 5.82812C17.0451 5.78021 16.9612 5.71154 16.8953 5.62709C16.8294 5.54265 16.7832 5.44456 16.76 5.33999C16.6011 4.72681 16.5436 4.09173 16.59 3.45999Z" fill="white"/>
<path d="M8.55 3.55999C8.55 3.65999 8.62 3.75999 9.01 3.79999C9.57 3.79999 9.81 3.97999 10.58 4.01999H11.84H13.09C13.78 4.01999 14.2 3.95999 14.9 3.90999C15.23 3.90999 15.49 3.26999 15.05 3.15999C14.29 3.12999 13.77 2.99999 13 2.99999H11C10.3816 2.99795 9.76376 3.03468 9.15 3.10999C8.73 3.13999 8.54 3.40999 8.55 3.55999Z" fill="white"/>
<path d="M23 4.06999C22.6625 3.70287 22.2183 3.45102 21.73 3.34999C21.2672 3.22759 20.7878 3.18032 20.31 3.20999C19.6 3.30999 19.79 3.79999 20.16 3.79999C20.4951 3.79663 20.8297 3.82341 21.16 3.87999C21.6588 3.91561 22.1262 4.13681 22.47 4.49999C22.703 4.96738 22.8359 5.47829 22.86 5.99999C22.96 6.77999 23.04 7.78999 23.09 8.89999C21.62 8.89999 18.67 8.77999 15.36 8.71999H11.97H8.58C5 8.74999 1.89 8.86999 0.91 8.90999C0.903653 7.40125 1.05785 5.89611 1.37 4.41999C1.46837 4.2394 1.6126 4.08793 1.78817 3.98084C1.96373 3.87374 2.16441 3.81482 2.37 3.80999C2.78533 3.70893 3.21309 3.66851 3.64 3.68999C3.69653 3.68026 3.74849 3.65279 3.78835 3.61155C3.82821 3.5703 3.8539 3.51744 3.8617 3.46062C3.8695 3.40379 3.859 3.34596 3.83173 3.2955C3.80445 3.24505 3.76181 3.20459 3.71 3.17999C3.09052 3.0458 2.44948 3.0458 1.83 3.17999C1.58462 3.23903 1.35606 3.35356 1.16189 3.51479C0.967722 3.67602 0.813128 3.87964 0.71 4.10999C0.32 5.02999 -0.0799999 10.11 0.0100001 14.61C0.0800001 17.88 0.47 20.81 1.19 21.69C1.72 22.33 3.1 22.69 4.84 22.83C7.55 23.01 11.15 22.71 13.01 22.71C15.3459 22.784 17.684 22.7071 20.01 22.48C21.0585 22.3889 22.0784 22.0897 23.01 21.6C23.2813 21.37 23.4621 21.051 23.52 20.7C23.8761 18.6465 24.0368 16.5638 24 14.48C24 9.99999 23.63 4.80999 23 4.06999ZM22.75 19.53C22.6943 19.9688 22.5834 20.3989 22.42 20.81C21.3009 21.2784 20.103 21.5295 18.89 21.55C16.55 21.74 13.97 21.65 13.01 21.65C11.17 21.65 7.6 21.96 4.91 21.8C3.53 21.72 2.39 21.58 1.97 21.08C1.29 20.29 1 17.6 0.91 14.63C0.843519 12.9207 0.836848 11.2097 0.89 9.49999C1.89 9.49999 4.94 9.65999 8.58 9.72999H11.97H15.36C18.69 9.66999 21.65 9.57999 23.11 9.53999C23.11 10.54 23.16 11.67 23.11 12.77C23.13 15.0286 23.0098 17.2863 22.75 19.53Z" fill="white"/>
<path d="M4.48 3.83999C4.40303 4.64074 4.48112 5.44881 4.71 6.21999C4.89073 6.57169 5.19386 6.84515 5.56225 6.98882C5.93065 7.13249 6.33887 7.13647 6.71 6.99999C6.96467 6.9412 7.20019 6.81856 7.39439 6.64362C7.58858 6.46867 7.73504 6.24718 7.82 5.99999C7.99008 5.43328 8.05116 4.83946 8 4.24999V3.18999V2.78999C8.0136 2.56871 7.97958 2.34709 7.90022 2.14007C7.82087 1.93306 7.69803 1.74548 7.54 1.58999C7.00869 1.22392 6.35799 1.07375 5.72 1.16999C5.63247 1.16999 5.54854 1.20476 5.48665 1.26665C5.42476 1.32854 5.39 1.41247 5.39 1.49999C5.36546 1.43833 5.31981 1.38739 5.2612 1.35625C5.20259 1.32512 5.13483 1.31581 5.07 1.32999C5.00462 1.3483 4.94481 1.38255 4.89594 1.42968C4.84707 1.4768 4.81066 1.53533 4.79 1.59999C4.71492 1.92843 4.67139 2.26328 4.66 2.59999L4.55 3.12999V3.38999L4.48 3.83999ZM5.3 3.54999C5.3 3.54999 5.46 1.69999 5.46 1.61999C5.48251 1.68149 5.52334 1.7346 5.57699 1.77215C5.63064 1.8097 5.69451 1.82989 5.76 1.82999C6.66 1.82999 7.04 1.99999 7.14 2.34999C7.16918 2.98664 7.12218 3.6245 7 4.24999C7.00088 4.63704 6.95726 5.02291 6.87 5.39999C6.81 5.62999 6.72 5.86999 6.47 5.92999C6.37242 5.97419 6.26622 5.99606 6.15912 5.994C6.05203 5.99195 5.94674 5.96603 5.85093 5.91812C5.75512 5.87022 5.67121 5.80154 5.60531 5.7171C5.53941 5.63265 5.49318 5.53457 5.47 5.42999C5.30924 4.81713 5.25178 4.18175 5.3 3.54999Z" fill="white"/>
</g>
<defs>
<clipPath id="clip0_33_298">
<rect width="24" height="24" fill="white"/>
</clipPath>
</defs>
</svg>
